name ./resultDataOpenSim/trcMotMarkerGrf/sub10/grf-04-08.mot
datacolumns 19
datarows 30
range 1.62000000 1.73600000
endheader

                time	     ground_force_vx	     ground_force_vy	     ground_force_vz	     ground_force_px	     ground_force_py	     ground_force_pz	   l_ground_force_vx	   l_ground_force_vy	   l_ground_force_vz	   l_ground_force_px	   l_ground_force_py	   l_ground_force_pz	     ground_torque_x	     ground_torque_y	     ground_torque_z	   l_ground_torque_x	   l_ground_torque_y	   l_ground_torque_z	
          1.62000000	         -8.64808399	        416.27794844	        -20.28638383	          0.71465539	          0.00000000	          0.12294271	          0.00000000	          0.00000000	          0.00000000	          0.00000000	          0.00000000	          0.00000000	          0.00000000	          2.06916287	          0.00000000	          0.00000000	          0.00000000	          0.00000000	
          1.62400000	         -7.88361125	        412.72332659	        -20.98905739	          0.71618577	          0.00000000	          0.12303391	          0.00000000	          0.00000000	          0.00000000	          0.00000000	          0.00000000	          0.00000000	          0.00000000	          2.28984341	          0.00000000	          0.00000000	          0.00000000	          0.00000000	
          1.62800000	         -7.59310505	        409.63074818	        -21.37502789	          0.71773826	          0.00000000	          0.12309911	          0.00000000	          0.00000000	          0.00000000	          0.00000000	          0.00000000	          0.00000000	          0.00000000	          2.48315122	          0.00000000	          0.00000000	          0.00000000	          0.00000000	
          1.63200000	         -7.52052848	        406.98485286	        -21.29644894	          0.71928065	          0.00000000	          0.12313337	          0.00000000	          0.00000000	          0.00000000	          0.00000000	          0.00000000	          0.00000000	          0.00000000	          2.62083871	          0.00000000	          0.00000000	          0.00000000	          0.00000000	
          1.63600000	         -7.37530484	        404.79120413	        -20.70510754	          0.72077749	          0.00000000	          0.12314103	          0.00000000	          0.00000000	          0.00000000	          0.00000000	          0.00000000	          0.00000000	          0.00000000	          2.68586663	          0.00000000	          0.00000000	          0.00000000	          0.00000000	
          1.64000000	         -6.90698859	        403.06674193	        -19.66114976	          0.72219171	          0.00000000	          0.12313334	          0.00000000	          0.00000000	          0.00000000	          0.00000000	          0.00000000	          0.00000000	          0.00000000	          2.67681117	          0.00000000	          0.00000000	          0.00000000	          0.00000000	
          1.64400000	         -5.96707961	        401.83048600	        -18.31962222	          0.72349328	          0.00000000	          0.12311953	          0.00000000	          0.00000000	          0.00000000	          0.00000000	          0.00000000	          0.00000000	          0.00000000	          2.60862299	          0.00000000	          0.00000000	          0.00000000	          0.00000000	
          1.64800000	         -4.53776935	        401.10215654	        -16.89965267	          0.72467114	          0.00000000	          0.12310169	          0.00000000	          0.00000000	          0.00000000	          0.00000000	          0.00000000	          0.00000000	          0.00000000	          2.50945346	          0.00000000	          0.00000000	          0.00000000	          0.00000000	
          1.65200000	         -2.72286723	        400.90455279	        -15.64282321	          0.72573593	          0.00000000	          0.12307623	          0.00000000	          0.00000000	          0.00000000	          0.00000000	          0.00000000	          0.00000000	          0.00000000	          2.41436349	          0.00000000	          0.00000000	          0.00000000	          0.00000000	
          1.65600000	         -0.70947801	        401.26204511	        -14.76687309	          0.72671517	          0.00000000	          0.12304299	          0.00000000	          0.00000000	          0.00000000	          0.00000000	          0.00000000	          0.00000000	          0.00000000	          2.35749920	          0.00000000	          0.00000000	          0.00000000	          0.00000000	
          1.66000000	          1.28807350	        402.19660611	        -14.42346744	          0.72765060	          0.00000000	          0.12300779	          0.00000000	          0.00000000	          0.00000000	          0.00000000	          0.00000000	          0.00000000	          0.00000000	          2.36458461	          0.00000000	          0.00000000	          0.00000000	          0.00000000	
          1.66400000	          3.08830306	        403.72588232	        -14.66978532	          0.72859381	          0.00000000	          0.12297412	          0.00000000	          0.00000000	          0.00000000	          0.00000000	          0.00000000	          0.00000000	          0.00000000	          2.44740175	          0.00000000	          0.00000000	          0.00000000	          0.00000000	
          1.66800000	          4.58910890	        405.86103716	        -15.45843863	          0.72959050	          0.00000000	          0.12293959	          0.00000000	          0.00000000	          0.00000000	          0.00000000	          0.00000000	          0.00000000	          0.00000000	          2.60143669	          0.00000000	          0.00000000	          0.00000000	          0.00000000	
          1.67200000	          5.78615453	        408.60175169	        -16.64537569	          0.73066631	          0.00000000	          0.12289698	          0.00000000	          0.00000000	          0.00000000	          0.00000000	          0.00000000	          0.00000000	          0.00000000	          2.80717943	          0.00000000	          0.00000000	          0.00000000	          0.00000000	
          1.67600000	          6.76049557	        411.93259537	        -18.01614652	          0.73183041	          0.00000000	          0.12283261	          0.00000000	          0.00000000	          0.00000000	          0.00000000	          0.00000000	          0.00000000	          0.00000000	          3.03478960	          0.00000000	          0.00000000	          0.00000000	          0.00000000	
          1.68000000	          7.64329061	        415.82517090	        -19.32861285	          0.73307751	          0.00000000	          0.12273034	          0.00000000	          0.00000000	          0.00000000	          0.00000000	          0.00000000	          0.00000000	          0.00000000	          3.25110177	          0.00000000	          0.00000000	          0.00000000	          0.00000000	
          1.68400000	          8.56858387	        420.24598712	        -20.36181969	          0.73439354	          0.00000000	          0.12257460	          0.00000000	          0.00000000	          0.00000000	          0.00000000	          0.00000000	          0.00000000	          0.00000000	          3.42736141	          0.00000000	          0.00000000	          0.00000000	          0.00000000	
          1.68800000	          9.62923719	        425.16949438	        -20.95877148	          0.73576352	          0.00000000	          0.12235435	          0.00000000	          0.00000000	          0.00000000	          0.00000000	          0.00000000	          0.00000000	          0.00000000	          3.54580292	          0.00000000	          0.00000000	          0.00000000	          0.00000000	
          1.69200000	         10.85204379	        430.59037909	        -21.05672981	          0.73717517	          0.00000000	          0.12206746	          0.00000000	          0.00000000	          0.00000000	          0.00000000	          0.00000000	          0.00000000	          0.00000000	          3.60338653	          0.00000000	          0.00000000	          0.00000000	          0.00000000	
          1.69600000	         12.19863864	        436.52109321	        -20.70033820	          0.73861876	          0.00000000	          0.12172240	          0.00000000	          0.00000000	          0.00000000	          0.00000000	          0.00000000	          0.00000000	          0.00000000	          3.61176126	          0.00000000	          0.00000000	          0.00000000	          0.00000000	
          1.70000000	         13.58783217	        442.97294531	        -20.03274323	          0.74008727	          0.00000000	          0.12133207	          0.00000000	          0.00000000	          0.00000000	          0.00000000	          0.00000000	          0.00000000	          0.00000000	          3.59361277	          0.00000000	          0.00000000	          0.00000000	          0.00000000	
          1.70400000	         14.92808062	        449.93681802	        -19.26563940	          0.74157815	          0.00000000	          0.12091126	          0.00000000	          0.00000000	          0.00000000	          0.00000000	          0.00000000	          0.00000000	          0.00000000	          3.57659023	          0.00000000	          0.00000000	          0.00000000	          0.00000000	
          1.70800000	         16.14867330	        457.37342738	        -18.63371160	          0.74309853	          0.00000000	          0.12047772	          0.00000000	          0.00000000	          0.00000000	          0.00000000	          0.00000000	          0.00000000	          0.00000000	          3.58660417	          0.00000000	          0.00000000	          0.00000000	          0.00000000	
          1.71200000	         17.22230344	        465.21848326	        -18.34174149	          0.74466651	          0.00000000	          0.12005018	          0.00000000	          0.00000000	          0.00000000	          0.00000000	          0.00000000	          0.00000000	          0.00000000	          3.64222948	          0.00000000	          0.00000000	          0.00000000	          0.00000000	
          1.71600000	         18.17326495	        473.40913351	        -18.51905530	          0.74628685	          0.00000000	          0.11964385	          0.00000000	          0.00000000	          0.00000000	          0.00000000	          0.00000000	          0.00000000	          0.00000000	          3.75132240	          0.00000000	          0.00000000	          0.00000000	          0.00000000	
          1.72000000	         19.07074440	        481.91498443	        -19.19570264	          0.74795610	          0.00000000	          0.11926301	          0.00000000	          0.00000000	          0.00000000	          0.00000000	          0.00000000	          0.00000000	          0.00000000	          3.91017283	          0.00000000	          0.00000000	          0.00000000	          0.00000000	
          1.72400000	         20.01117525	        490.74491430	        -20.30449390	          0.74966283	          0.00000000	          0.11889656	          0.00000000	          0.00000000	          0.00000000	          0.00000000	          0.00000000	          0.00000000	          0.00000000	          4.10494433	          0.00000000	          0.00000000	          0.00000000	          0.00000000	
          1.72800000	         21.09089692	        499.92831034	        -21.70524636	          0.75138550	          0.00000000	          0.11853274	          0.00000000	          0.00000000	          0.00000000	          0.00000000	          0.00000000	          0.00000000	          0.00000000	          4.31488055	          0.00000000	          0.00000000	          0.00000000	          0.00000000	
          1.73200000	         22.37474109	        509.49409973	        -23.22402175	          0.75309723	          0.00000000	          0.11817151	          0.00000000	          0.00000000	          0.00000000	          0.00000000	          0.00000000	          0.00000000	          0.00000000	          4.51662086	          0.00000000	          0.00000000	          0.00000000	          0.00000000	
          1.73600000	         23.87444878	        519.46306161	        -24.69609157	          0.75477348	          0.00000000	          0.11782377	          0.00000000	          0.00000000	          0.00000000	          0.00000000	          0.00000000	          0.00000000	          0.00000000	          4.68883277	          0.00000000	          0.00000000	          0.00000000	          0.00000000	
